<?xml version="1.0" encoding="UTF-8"?>
<svg version="1.1" xmlns="http://www.w3.org/2000/svg" width="200" height="200">
<path d="M0 0 C66 0 132 0 200 0 C200 66 200 132 200 200 C134 200 68 200 0 200 C0 134 0 68 0 0 Z " fill="#F2D5CD" transform="translate(0,0)"/>
<path d="M0 0 C1.32 0 2.64 0 4 0 C4.66 0.99 5.32 1.98 6 3 C1.25 6 1.25 6 -1 6 C-2.52299523 8.93720508 -3.80100302 11.9168649 -5 15 C-1.18586998 13.8321734 -1.18586998 13.8321734 1.3125 10.875 C1.539375 10.25625 1.76625 9.6375 2 9 C5.60019136 8.65712463 7.71187619 8.86194067 11 10.4375 C14.90931673 13.77670804 17.36291014 17.623553 20 22 C20.66 21.67 21.32 21.34 22 21 C23 24 23 24 23 26 C24.10170737 27.78546868 24.10170737 27.78546868 25.5 29.625 C25.9640625 30.25664063 26.428125 30.88828125 26.90625 31.5390625 C27.44765625 32.26222656 27.44765625 32.26222656 28 33 C29.051875 32.505 29.051875 32.505 30.125 32 C33.26003116 30.90955438 35.70563182 30.84677357 39 31 C39.31563182 36.26053037 38.66590937 39.44573816 36 44 C33.625 44.1875 33.625 44.1875 31 44 C30.34 43.01 29.68 42.02 29 41 C28.34 41 27.68 41 27 41 C24.39225079 43.60774921 22.40185739 46.30111758 20.5625 49.5 C18.95390683 52.07374907 17.1380101 53.8619899 15 56 C14.4740625 57.36125 14.4740625 57.36125 13.9375 58.75 C12 61 12 61 9.3671875 61.31640625 C6.56192037 61.31281895 3.79663539 61.21366484 1 61 C4.74428563 63.54002371 7.7162839 64.49040651 12.1875 65.0625 C17.78753541 65.78753541 17.78753541 65.78753541 20 68 C19.75 71.5625 19.75 71.5625 19 75 C18.01 75.495 18.01 75.495 17 76 C17.33 73.69 17.66 71.38 18 69 C17.04738281 68.82984375 16.09476563 68.6596875 15.11328125 68.484375 C13.23189453 68.12085937 13.23189453 68.12085937 11.3125 67.75 C10.07113281 67.51796875 8.82976562 67.2859375 7.55078125 67.046875 C3.8117371 65.94449455 1.7950512 64.67578185 -1 62 C-1.33 61.34 -1.66 60.68 -2 60 C-5.635326 59.09967993 -9.26850026 58.36875097 -12.94726562 57.67578125 C-18.19211032 56.61211118 -23.71103438 55.36955617 -28 52 C-28.71704102 49.86767578 -28.71704102 49.86767578 -29 48 C-28.01 47.505 -28.01 47.505 -27 47 C-26.9690625 47.8971875 -26.9690625 47.8971875 -26.9375 48.8125 C-25.6793235 51.74824516 -23.90960399 52.12079969 -21.05639648 53.27075195 C-17.61666425 54.49056439 -14.11221145 55.3528469 -10.5625 56.1875 C-9.83095703 56.36474609 -9.09941406 56.54199219 -8.34570312 56.72460938 C-6.56511585 57.15520891 -4.78273774 57.57839216 -3 58 C-3.33 56.741875 -3.66 55.48375 -4 54.1875 C-5.60619984 46.92518215 -6.11523779 39.87330242 -3 33 C-3.66 33 -4.32 33 -5 33 C-5.639375 33.825 -6.27875 34.65 -6.9375 35.5 C-7.618125 36.325 -8.29875 37.15 -9 38 C-9.99 38 -10.98 38 -12 38 C-12.2371875 38.64582031 -12.474375 39.29164062 -12.71875 39.95703125 C-14 42 -14 42 -16.09375 42.57421875 C-17.28484375 42.63029297 -17.28484375 42.63029297 -18.5 42.6875 C-21.8786171 42.83863315 -21.8786171 42.83863315 -25 44 C-25.3125 41.3125 -25.3125 41.3125 -25 38 C-23.33333333 36.33333333 -21.66666667 34.66666667 -20 33 C-18.92161276 28.68645102 -18.83109531 25.28598387 -20 21 C-17.38464451 18.6025908 -15.28412043 17.76963368 -11.875 17.125 C-9.7939035 16.71433556 -9.7939035 16.71433556 -8 16 C-6.58333333 13.66666667 -6.58333333 13.66666667 -6 11 C-5.484375 10.34 -4.96875 9.68 -4.4375 9 C-2.76097115 6.66743813 -2.51456129 4.79333269 -2 2 C-1.34 1.34 -0.68 0.68 0 0 Z " fill="#E3C8BF" transform="translate(102,44)"/>
<path d="M0 0 C1.32 0 2.64 0 4 0 C4.66 0.99 5.32 1.98 6 3 C1.25 6 1.25 6 -1 6 C-2.52299523 8.93720508 -3.80100302 11.9168649 -5 15 C-1.18586998 13.8321734 -1.18586998 13.8321734 1.3125 10.875 C1.539375 10.25625 1.76625 9.6375 2 9 C5.75626559 8.64226042 7.73929307 8.86443239 11.125 10.625 C14.29281075 13.24188714 15.92789952 15.49336842 18 19 C17.67 19.66 17.34 20.32 17 21 C16.34 21 15.68 21 15 21 C15.495 24.465 15.495 24.465 16 28 C15.47921875 27.20207031 14.9584375 26.40414062 14.421875 25.58203125 C11.38492116 22.34424659 9.6014387 22.16615826 5.25 21.6875 C4.07953125 21.54699219 2.9090625 21.40648438 1.703125 21.26171875 C0.81109375 21.17535156 -0.0809375 21.08898437 -1 21 C-1 19.68 -1 18.36 -1 17 C-2.97536745 17.34786708 -2.97536745 17.34786708 -5 18 C-5.33 18.66 -5.66 19.32 -6 20 C-6.66 20 -7.32 20 -8 20 C-8.33 22.97 -8.66 25.94 -9 29 C-13 30 -13 30 -15.25 29.0625 C-16.11625 28.5365625 -16.11625 28.5365625 -17 28 C-16.67 28.99 -16.34 29.98 -16 31 C-16.66 31 -17.32 31 -18 31 C-17.835 31.804375 -17.67 32.60875 -17.5 33.4375 C-16.85964912 36.71929825 -16.85964912 36.71929825 -18 39 C-18.99 39 -19.98 39 -21 39 C-21 39.66 -21 40.32 -21 41 C-18.0280615 39.87548273 -15.66559313 38.77706209 -13 37 C-13 38.32 -13 39.64 -13 41 C-14.56305491 42.56305491 -16.27678218 42.30639968 -18.4375 42.5 C-21.84497505 42.79146944 -21.84497505 42.79146944 -25 44 C-25.3125 41.3125 -25.3125 41.3125 -25 38 C-23.33333333 36.33333333 -21.66666667 34.66666667 -20 33 C-18.92161276 28.68645102 -18.83109531 25.28598387 -20 21 C-17.38464451 18.6025908 -15.28412043 17.76963368 -11.875 17.125 C-9.7939035 16.71433556 -9.7939035 16.71433556 -8 16 C-6.58333333 13.66666667 -6.58333333 13.66666667 -6 11 C-5.484375 10.34 -4.96875 9.68 -4.4375 9 C-2.76097115 6.66743813 -2.51456129 4.79333269 -2 2 C-1.34 1.34 -0.68 0.68 0 0 Z " fill="#B79D95" transform="translate(102,44)"/>
<path d="M0 0 C0.33 0 0.66 0 1 0 C1.33 3.3 1.66 6.6 2 10 C4.23052854 11.28302437 4.23052854 11.28302437 7 12 C9.54199954 11.02404613 9.54199954 11.02404613 11.8125 9.25 C12.60269531 8.69828125 13.39289063 8.1465625 14.20703125 7.578125 C14.79871094 7.05734375 15.39039062 6.5365625 16 6 C16 5.34 16 4.68 16 4 C16.763125 3.71125 17.52625 3.4225 18.3125 3.125 C21.15029308 2.03730987 21.15029308 2.03730987 24 0 C22.50958227 3.79379058 20.30937488 5.68343758 17 8 C16.34 8 15.68 8 15 8 C15.226875 8.598125 15.45375 9.19625 15.6875 9.8125 C15.8421875 10.8953125 15.8421875 10.8953125 16 12 C14.625 13.6875 14.625 13.6875 13 15 C12.67 15.33 12.34 15.66 12 16 C12.99 16.33 13.98 16.66 15 17 C14.34 17 13.68 17 13 17 C12.34 19.97 11.68 22.94 11 26 C12.32 25.67 13.64 25.34 15 25 C14.67 25.66 14.34 26.32 14 27 C12.35 26.67 10.7 26.34 9 26 C8.34 23.69 7.68 21.38 7 19 C6.67 19.33 6.34 19.66 6 20 C5.34 20 4.68 20 4 20 C4.01160156 20.69867188 4.02320312 21.39734375 4.03515625 22.1171875 C4.04869141 23.48230469 4.04869141 23.48230469 4.0625 24.875 C4.07410156 25.77992188 4.08570312 26.68484375 4.09765625 27.6171875 C4 30 4 30 3 32 C2.34 32 1.68 32 1 32 C0.80508548 30.54263913 0.61930642 29.08405407 0.4375 27.625 C0.33308594 26.81289062 0.22867188 26.00078125 0.12109375 25.1640625 C0 23 0 23 1 21 C1.01610171 19.40321678 0.96535627 17.8054601 0.87890625 16.2109375 C0.80639648 14.79941406 0.80639648 14.79941406 0.73242188 13.359375 C0.67634766 12.37453125 0.62027344 11.3896875 0.5625 10.375 C0.51029297 9.38242188 0.45808594 8.38984375 0.40429688 7.3671875 C0.27441051 4.91115432 0.13943836 2.4555064 0 0 Z " fill="#D1B7B0" transform="translate(95,120)"/>
<path d="M0 0 C1.32 0 2.64 0 4 0 C4 1.32 4 2.64 4 4 C4.90363281 4.03738281 5.80726562 4.07476562 6.73828125 4.11328125 C7.91777344 4.17902344 9.09726563 4.24476562 10.3125 4.3125 C12.07013672 4.39951172 12.07013672 4.39951172 13.86328125 4.48828125 C17 5 17 5 18.91796875 6.35546875 C20 8 20 8 20 11 C15.38 11 10.76 11 6 11 C6 10.34 6 9.68 6 9 C5.34 9 4.68 9 4 9 C3.34 10.32 2.68 11.64 2 13 C0.33388095 13.042721 -1.33382885 13.04063832 -3 13 C-4 12 -4 12 -4.125 8.5625 C-4 5 -4 5 -3 3 C-2.34 3 -1.68 3 -1 3 C-0.67 2.01 -0.34 1.02 0 0 Z " fill="#F1D6CE" transform="translate(97,61)"/>
<path d="M0 0 C0.31563182 5.26053037 -0.33409063 8.44573816 -3 13 C-5.375 13.1875 -5.375 13.1875 -8 13 C-8.66 12.01 -9.32 11.02 -10 10 C-10.66 10 -11.32 10 -12 10 C-15.2990893 13.2990893 -17.65472358 16.97952614 -20 21 C-20.33 20.34 -20.66 19.68 -21 19 C-20.04139202 16.62431936 -19.02640397 14.40459415 -17.875 12.125 C-17.57851562 11.49980469 -17.28203125 10.87460938 -16.9765625 10.23046875 C-14.92503525 6.11872135 -12.82955519 3.53264513 -9 1 C-5.8035914 -0.06546953 -3.34252724 -0.07427838 0 0 Z " fill="#AE948B" transform="translate(141,75)"/>
<path d="M0 0 C3.75626559 -0.35773958 5.73929307 -0.13556761 9.125 1.625 C12.29281075 4.24188714 13.92789952 6.49336842 16 10 C15.67 10.66 15.34 11.32 15 12 C14.34 12 13.68 12 13 12 C13.33 14.31 13.66 16.62 14 19 C13.47921875 18.20207031 12.9584375 17.40414062 12.421875 16.58203125 C9.38492116 13.34424659 7.6014387 13.16615826 3.25 12.6875 C2.07953125 12.54699219 0.9090625 12.40648438 -0.296875 12.26171875 C-1.63492188 12.13216797 -1.63492188 12.13216797 -3 12 C-2.67 10.68 -2.34 9.36 -2 8 C-1.67 8.66 -1.34 9.32 -1 10 C0.98 10 2.96 10 5 10 C4.67 9.34 4.34 8.68 4 8 C8.75 9.875 8.75 9.875 11 11 C11 9.68 11 8.36 11 7 C7.83759418 4.89172945 6.49342531 4.66182535 2.8125 4.375 C1.91144531 4.30023438 1.01039062 4.22546875 0.08203125 4.1484375 C-0.60503906 4.09945312 -1.29210937 4.05046875 -2 4 C-1.34 2.68 -0.68 1.36 0 0 Z " fill="#967D74" transform="translate(104,53)"/>
<path d="M0 0 C0.99 0.33 1.98 0.66 3 1 C2.34 1 1.68 1 1 1 C0.34 3.97 -0.32 6.94 -1 10 C2.87051275 6.92118304 6.02911382 3.99926986 9 0 C9.66 0.33 10.32 0.66 11 1 C10.01 2.485 10.01 2.485 9 4 C8.60986284 5.9896995 8.26797351 7.99019869 8 10 C12.21422242 7.11658466 13.76075855 4.95696581 15 0 C15.66 0 16.32 0 17 0 C17.33 3.3 17.66 6.6 18 10 C17.21625 9.79375 16.4325 9.5875 15.625 9.375 C14.75875 9.25125 13.8925 9.1275 13 9 C12.34 9.66 11.68 10.32 11 11 C8.5 11.25 8.5 11.25 6 11 C5.34 10.34 4.68 9.68 4 9 C3.34 9.66 2.68 10.32 2 11 C-0.625 11.125 -0.625 11.125 -3 11 C-4.04434887 7.67707176 -4.2162055 6.43241099 -2.625 3.25 C-1 1 -1 1 0 0 Z " fill="#574540" transform="translate(68,136)"/>
<path d="M0 0 C0.66 1.32 1.32 2.64 2 4 C3.32 2.68 4.64 1.36 6 0 C6.66 0.33 7.32 0.66 8 1 C7.01 1.8971875 7.01 1.8971875 6 2.8125 C3.6626154 4.87501834 3.6626154 4.87501834 4 8 C3.34 8 2.68 8 2 8 C2.33 8.99 2.66 9.98 3 11 C2.34 11 1.68 11 1 11 C1.165 11.804375 1.33 12.60875 1.5 13.4375 C2.14035088 16.71929825 2.14035088 16.71929825 1 19 C0.01 19 -0.98 19 -2 19 C-2 19.66 -2 20.32 -2 21 C0.9719385 19.87548273 3.33440687 18.77706209 6 17 C6 18.32 6 19.64 6 21 C4.43694509 22.56305491 2.72321782 22.30639968 0.5625 22.5 C-2.84497505 22.79146944 -2.84497505 22.79146944 -6 24 C-6.3125 21.3125 -6.3125 21.3125 -6 18 C-4.33333333 16.33333333 -2.66666667 14.66666667 -1 13 C0.09472668 8.62109326 0.02415715 5.35266789 -1 1 C-0.67 0.67 -0.34 0.34 0 0 Z " fill="#B59A91" transform="translate(83,64)"/>
<path d="M0 0 C0.5775 0.20625 1.155 0.4125 1.75 0.625 C0.75 9.19642857 0.75 9.19642857 -0.25 12.625 C-0.91 12.625 -1.57 12.625 -2.25 12.625 C-2.25 10.315 -2.25 8.005 -2.25 5.625 C-2.91 7.935 -3.57 10.245 -4.25 12.625 C-4.91 12.625 -5.57 12.625 -6.25 12.625 C-6.25 8.995 -6.25 5.365 -6.25 1.625 C-2.25 -0.375 -2.25 -0.375 0 0 Z " fill="#96847F" transform="translate(129.25,133.375)"/>
<path d="M0 0 C0.33 0 0.66 0 1 0 C1.20496094 1.13179688 1.40992187 2.26359375 1.62109375 3.4296875 C1.89306972 4.91148761 2.16521387 6.39325685 2.4375 7.875 C2.57220703 8.62136719 2.70691406 9.36773437 2.84570312 10.13671875 C3.54536611 14.18533378 3.54536611 14.18533378 5 18 C4.855625 18.53625 4.71125 19.0725 4.5625 19.625 C4.01549485 21.93457731 3.96152083 23.76494415 4 26.125 C4 30 4 30 3 32 C2.34 32 1.68 32 1 32 C0.80508548 30.54263913 0.61930642 29.08405407 0.4375 27.625 C0.33308594 26.81289062 0.22867188 26.00078125 0.12109375 25.1640625 C0 23 0 23 1 21 C1.01610171 19.40321678 0.96535627 17.8054601 0.87890625 16.2109375 C0.80639648 14.79941406 0.80639648 14.79941406 0.73242188 13.359375 C0.67634766 12.37453125 0.62027344 11.3896875 0.5625 10.375 C0.51029297 9.38242188 0.45808594 8.38984375 0.40429688 7.3671875 C0.27441051 4.91115432 0.13943836 2.4555064 0 0 Z " fill="#C2A9A2" transform="translate(95,120)"/>
<path d="M0 0 C0.66 0 1.32 0 2 0 C1.835 0.804375 1.67 1.60875 1.5 2.4375 C0.90752652 6.65887352 0.91493291 10.74664545 1 15 C0.01 15 -0.98 15 -2 15 C-2 11.37 -2 7.74 -2 4 C-2.99 4.495 -2.99 4.495 -4 5 C-4 7.31 -4 9.62 -4 12 C-4.99 12 -5.98 12 -7 12 C-8.0111514 8.78270009 -8.17213761 7.39863447 -6.8125 4.25 C-4.8318661 1.79128205 -4.03966673 1.4052889 -1 1 C-0.67 0.67 -0.34 0.34 0 0 Z " fill="#3F302B" transform="translate(140,134)"/>
<path d="M0 0 C-0.75 7.625 -0.75 7.625 -3 11 C-3.99 11 -4.98 11 -6 11 C-6 9 -6 9 -5 8 C-6.32 7.67 -7.64 7.34 -9 7 C-9 5.35 -9 3.7 -9 2 C-5.62902617 0.50178941 -3.79557881 0 0 0 Z " fill="#EED5CC" transform="translate(140,76)"/>
<path d="M0 0 C0.99 0.33 1.98 0.66 3 1 C2.67 1.66 2.34 2.32 2 3 C1.34 3 0.68 3 0 3 C-0.33 5.97 -0.66 8.94 -1 12 C-2.32 12.33 -3.64 12.66 -5 13 C-6.75 11.5625 -6.75 11.5625 -8 10 C-6.44303593 6.17836093 -3.96591316 3.81381505 -1 1 C-0.67 0.67 -0.34 0.34 0 0 Z " fill="#B0968E" transform="translate(94,61)"/>
<path d="M0 0 C0.33 0.66 0.66 1.32 1 2 C1.99 2.33 2.98 2.66 4 3 C3.01 3.495 3.01 3.495 2 4 C2 4.66 2 5.32 2 6 C3.32 5.67 4.64 5.34 6 5 C6 5.99 6 6.98 6 8 C4.68 8.33 3.36 8.66 2 9 C1.67 11.31 1.34 13.62 1 16 C0.34 16 -0.32 16 -1 16 C-1 16.66 -1 17.32 -1 18 C-1.99 17.67 -2.98 17.34 -4 17 C-3.52294177 14.72872279 -3.04328294 12.45799168 -2.5625 10.1875 C-2.29566406 8.92292969 -2.02882812 7.65835938 -1.75390625 6.35546875 C-1 3 -1 3 0 0 Z " fill="#D7C2BE" transform="translate(132,129)"/>
<path d="M0 0 C0.99 0.33 1.98 0.66 3 1 C2.525625 1.9075 2.05125 2.815 1.5625 3.75 C-0.79429775 8.65213932 -1.11703477 12.2965232 -1.0625 17.75 C-1.05347656 18.92046875 -1.04445312 20.0909375 -1.03515625 21.296875 C-1.02355469 22.18890625 -1.01195312 23.0809375 -1 24 C-1.99 23.67 -2.98 23.34 -4 23 C-4.36207438 14.20293357 -3.95321607 7.90643214 0 0 Z " fill="#312420" transform="translate(61,125)"/>
<path d="M0 0 C5.2858549 -0.50341475 7.86554151 0.73089329 12 4 C12.33 4.66 12.66 5.32 13 6 C12.071875 5.7834375 12.071875 5.7834375 11.125 5.5625 C6.77462983 4.77943337 2.39978093 4.40153341 -2 4 C-1.34 2.68 -0.68 1.36 0 0 Z " fill="#B19890" transform="translate(104,53)"/>
<path d="M0 0 C0.78375 0.515625 1.5675 1.03125 2.375 1.5625 C3.24125 2.036875 4.1075 2.51125 5 3 C5.66 2.67 6.32 2.34 7 2 C8 5 8 5 8 7 C8.680625 7.969375 9.36125 8.93875 10.0625 9.9375 C10.701875 10.948125 11.34125 11.95875 12 13 C11.67 13.99 11.34 14.98 11 16 C10.0234375 14.20963542 9.046875 12.41927083 8.0703125 10.62890625 C7.08589976 8.83381685 7.08589976 8.83381685 5 8 C5 8.66 5 9.32 5 10 C2.17940253 8.58970126 2.01898286 6.92108419 1 4 C0.64141484 2.67323492 0.2981424 1.34164079 0 0 Z " fill="#CDB3AB" transform="translate(117,63)"/>
<path d="M0 0 C6.4 -0.36923077 6.4 -0.36923077 9.4375 1.5 C9.953125 1.995 10.46875 2.49 11 3 C10.67 4.65 10.34 6.3 10 8 C6.37 6.02 2.74 4.04 -1 2 C-0.67 1.34 -0.34 0.68 0 0 Z " fill="#F0D7CF" transform="translate(105,57)"/>
<path d="M0 0 C1.75 2.625 1.75 2.625 3 5 C0.36 5 -2.28 5 -5 5 C-5.33 4.34 -5.66 3.68 -6 3 C-6.66 2.34 -7.32 1.68 -8 1 C-8 0.34 -8 -0.32 -8 -1 C-4.61084253 -2.21041338 -2.9561154 -2.09788835 0 0 Z " fill="#CAB1AA" transform="translate(107,59)"/>
<path d="M0 0 C0.66 0 1.32 0 2 0 C2.33 3.3 2.66 6.6 3 10 C2.21625 9.79375 1.4325 9.5875 0.625 9.375 C-0.24125 9.25125 -1.1075 9.1275 -2 9 C-2.66 9.66 -3.32 10.32 -4 11 C-6.625 11.125 -6.625 11.125 -9 11 C-8.67 9.35 -8.34 7.7 -8 6 C-7.67 7.32 -7.34 8.64 -7 10 C-2.78577758 7.11658466 -1.23924145 4.95696581 0 0 Z " fill="#5E4C46" transform="translate(83,136)"/>
<path d="M0 0 C0.99 0 1.98 0 3 0 C3.50610724 6.07328688 2.04157942 9.77228537 -1 15 C-1.66 15 -2.32 15 -3 15 C-2.71682074 13.39431334 -2.42312209 11.79047953 -2.125 10.1875 C-1.96257813 9.29417969 -1.80015625 8.40085938 -1.6328125 7.48046875 C-1 5 -1 5 1 2 C0.67 1.34 0.34 0.68 0 0 Z " fill="#B9A39E" transform="translate(62,124)"/>
<path d="M0 0 C0.66 1.32 1.32 2.64 2 4 C3.32 2.68 4.64 1.36 6 0 C6.66 0.33 7.32 0.66 8 1 C7.01 1.8971875 7.01 1.8971875 6 2.8125 C3.6626154 4.87501834 3.6626154 4.87501834 4 8 C3.34 8 2.68 8 2 8 C2.33 8.99 2.66 9.98 3 11 C2.34 11 1.68 11 1 11 C1.33 12.65 1.66 14.3 2 16 C1.01 15.67 0.02 15.34 -1 15 C-1.06859127 12.53071428 -1.1093669 10.38886007 -0.4375 8 C0.11999597 5.45144699 -0.45437491 3.52351603 -1 1 C-0.67 0.67 -0.34 0.34 0 0 Z " fill="#AF948D" transform="translate(83,64)"/>
<path d="M0 0 C2 1 2 1 2.75 2.875 C3 5 3 5 1 8 C-1.9375 8.8125 -1.9375 8.8125 -5 9 C-5.99 8.34 -6.98 7.68 -8 7 C-7 6 -7 6 -4.4375 5.9375 C-3.2309375 5.9684375 -3.2309375 5.9684375 -2 6 C-2.33 5.67 -2.66 5.34 -3 5 C-2 3 -2 3 0 0 Z " fill="#DDC3BA" transform="translate(86,76)"/>
<path d="M0 0 C0.99 0.33 1.98 0.66 3 1 C2.34 1 1.68 1 1 1 C0.34 3.97 -0.32 6.94 -1 10 C0.32 9.67 1.64 9.34 3 9 C2.67 9.66 2.34 10.32 2 11 C0.35 10.67 -1.3 10.34 -3 10 C-3.75 7.8125 -3.75 7.8125 -4 5 C-2.0625 2.1875 -2.0625 2.1875 0 0 Z " fill="#4F3A35" transform="translate(107,136)"/>
<path d="M0 0 C1.32 0 2.64 0 4 0 C4.66 0.99 5.32 1.98 6 3 C1.56923077 6.07692308 1.56923077 6.07692308 -1.3125 5.6875 C-1.869375 5.460625 -2.42625 5.23375 -3 5 C-1.125 1.125 -1.125 1.125 0 0 Z " fill="#DBBFB7" transform="translate(102,44)"/>
<path d="M0 0 C0.66 0.33 1.32 0.66 2 1 C1.47731534 3.76276177 0.89130413 6.3260876 0 9 C-2.475 8.01 -2.475 8.01 -5 7 C-3.70700306 4.11562221 -2.34058637 2.12780579 0 0 Z " fill="#F0D6CF" transform="translate(91,64)"/>
<path d="M0 0 C0.639375 0.2475 1.27875 0.495 1.9375 0.75 C2.2675 1.74 2.5975 2.73 2.9375 3.75 C0.9575 4.74 -1.0225 5.73 -3.0625 6.75 C-3.7225 5.76 -4.3825 4.77 -5.0625 3.75 C-4.7325 2.76 -4.4025 1.77 -4.0625 0.75 C-2.0625 -0.25 -2.0625 -0.25 0 0 Z " fill="#F5D9D1" transform="translate(111.0625,43.25)"/>
<path d="M0 0 C0.66 0 1.32 0 2 0 C2 3.63 2 7.26 2 11 C0.68 11 -0.64 11 -2 11 C-1 3.57142857 -1 3.57142857 0 0 Z " fill="#493733" transform="translate(119,135)"/>
<path d="M0 0 C3.74278215 1.4488189 3.74278215 1.4488189 4.875 3.875 C5.02787435 6.47386397 4.33454536 7.8019253 3 10 C0.70366176 6.55549263 0.45983515 4.06187717 0 0 Z " fill="#E5CCC5" transform="translate(97,130)"/>
<path d="M0 0 C0.99 0 1.98 0 3 0 C2 7.42857143 2 7.42857143 1 11 C0.34 11 -0.32 11 -1 11 C-0.67 7.37 -0.34 3.74 0 0 Z " fill="#3D302C" transform="translate(128,135)"/>
<path d="M0 0 C0.66 0 1.32 0 2 0 C2 2.97 2 5.94 2 9 C1.01 9 0.02 9 -1 9 C-1.80967438 6.08517222 -2.21845993 4.53886783 -1.0625 1.6875 C-0.711875 1.130625 -0.36125 0.57375 0 0 Z " fill="#342522" transform="translate(134,137)"/>
<path d="M0 0 C3 1 3 1 4.1875 3.0625 C4.455625 3.701875 4.72375 4.34125 5 5 C4.34 5 3.68 5 3 5 C2.67 5.99 2.34 6.98 2 8 C1.34 7.67 0.68 7.34 0 7 C0 4.69 0 2.38 0 0 Z " fill="#EACFC8" transform="translate(122,71)"/>
<path d="M0 0 C0.66 0 1.32 0 2 0 C2.95024979 3.69541586 2.95024979 6.30458414 2 10 C1.34 10 0.68 10 0 10 C0 6.7 0 3.4 0 0 Z " fill="#483A36" transform="translate(113,136)"/>
<path d="M0 0 C0.33 0 0.66 0 1 0 C1.25 2.25 1.25 2.25 1 5 C-0.875 7.3125 -0.875 7.3125 -3 9 C-3.66 9 -4.32 9 -5 9 C-5 7.68 -5 6.36 -5 5 C-3.35 4.67 -1.7 4.34 0 4 C0 2.68 0 1.36 0 0 Z " fill="#F2DDD8" transform="translate(81,137)"/>
<path d="M0 0 C0.66 0.33 1.32 0.66 2 1 C1.525625 1.7425 1.05125 2.485 0.5625 3.25 C-0.77869327 5.61050015 -1.512312 7.36648477 -2 10 C-2.66 10 -3.32 10 -4 10 C-3.38461538 3.47692308 -3.38461538 3.47692308 -1.4375 1.0625 C-0.7259375 0.5365625 -0.7259375 0.5365625 0 0 Z " fill="#2C1D18" transform="translate(77,136)"/>
<path d="M0 0 C0.66 0 1.32 0 2 0 C2.33 1.32 2.66 2.64 3 4 C0.525 5.485 0.525 5.485 -2 7 C-1.125 1.125 -1.125 1.125 0 0 Z " fill="#DCC1BA" transform="translate(80,73)"/>
<path d="M0 0 C0.99 1.32 1.98 2.64 3 4 C0 5 0 5 -2 5 C-3.34882408 5.63474075 -4.6846659 6.29848848 -6 7 C-4.77065985 3.31197956 -3.06140622 2.27643027 0 0 Z " fill="#F5DCD5" transform="translate(72,144)"/>
<path d="M0 0 C2.0625 1.75 2.0625 1.75 4 4 C3.75 6.25 3.75 6.25 3 8 C1.68 7.67 0.36 7.34 -1 7 C-0.67 4.69 -0.34 2.38 0 0 Z " fill="#E8CEC7" transform="translate(101,142)"/>
<path d="M0 0 C0.66 0 1.32 0 2 0 C2 2.31 2 4.62 2 7 C1.01 7 0.02 7 -1 7 C-1.04254356 5.00045254 -1.04080783 2.99958364 -1 1 C-0.67 0.67 -0.34 0.34 0 0 Z " fill="#CEBEBA" transform="translate(136,138)"/>
<path d="M0 0 C2.625 1.375 2.625 1.375 5 3 C5 3.33 5 3.66 5 4 C2.36 4 -0.28 4 -3 4 C-2.67 3.01 -2.34 2.02 -2 1 C-1.34 0.67 -0.68 0.34 0 0 Z " fill="#F2D9D2" transform="translate(105,60)"/>
<path d="M0 0 C-2.31 1.65 -4.62 3.3 -7 5 C-7 3.35 -7 1.7 -7 0 C-4 -1 -4 -1 0 0 Z " fill="#F1D7D0" transform="translate(91,64)"/>
<path d="M0 0 C0.66 0.33 1.32 0.66 2 1 C1.34 2.32 0.68 3.64 0 5 C-1.65 4.67 -3.3 4.34 -5 4 C-3.35 2.68 -1.7 1.36 0 0 Z " fill="#BEA39A" transform="translate(88,81)"/>
<path d="M0 0 C0.99 0 1.98 0 3 0 C3 1.98 3 3.96 3 6 C2.01 6 1.02 6 0 6 C0 4.02 0 2.04 0 0 Z " fill="#CEB4AC" transform="translate(95,143)"/>
</svg>
